<svg width="230" height="47" viewBox="0 0 230 47" fill="none" xmlns="http://www.w3.org/2000/svg">
<path d="M26.3125 30.5938C26.25 31.1354 26.1562 31.6667 26.0312 32.1875C25.9271 32.7083 25.7917 33.1771 25.625 33.5938C25.4583 33.9896 25.2396 34.3021 24.9688 34.5312C24.7188 34.7812 24.4271 34.9062 24.0938 34.9062C23.7604 34.9062 23.4583 34.6458 23.1875 34.125C22.9167 33.625 22.6562 32.9583 22.4062 32.125C22.1771 31.2708 21.9583 30.3125 21.75 29.25C21.5625 28.1875 21.3854 27.1146 21.2188 26.0312C21.0729 24.9271 20.9479 23.8542 20.8438 22.8125C20.7396 21.7708 20.6562 20.8646 20.5938 20.0938C20.4688 20.8854 20.3229 21.7708 20.1562 22.75C19.9896 23.7292 19.7917 24.7292 19.5625 25.75C19.3333 26.75 19.0833 27.7396 18.8125 28.7188C18.5417 29.6771 18.25 30.5417 17.9375 31.3125C17.625 32.0625 17.2917 32.6667 16.9375 33.125C16.5833 33.5833 16.2083 33.8125 15.8125 33.8125C15.4583 33.8125 15.1042 33.5729 14.75 33.0938C14.3958 32.6146 14.0521 31.9896 13.7188 31.2188C13.3854 30.4271 13.0729 29.5521 12.7812 28.5938C12.4896 27.6354 12.2188 26.6771 11.9688 25.7188C11.7188 24.7396 11.5 23.8229 11.3125 22.9688C11.125 22.0938 10.9792 21.3646 10.875 20.7812C10.875 21.2188 10.8646 21.7083 10.8438 22.25C10.8438 22.7708 10.8438 23.1458 10.8438 23.375C10.8438 23.4792 10.8333 23.8229 10.8125 24.4062C10.8125 24.9896 10.7812 25.6875 10.7188 26.5C10.6562 27.3125 10.5625 28.1875 10.4375 29.125C10.3125 30.0417 10.125 30.8958 9.875 31.6875C9.64583 32.4792 9.35417 33.1458 9 33.6875C8.64583 34.2292 8.20833 34.5208 7.6875 34.5625C7.27083 34.375 6.91667 34.0625 6.625 33.625C6.35417 33.1667 6.125 32.6354 5.9375 32.0312C5.75 31.4271 5.60417 30.7812 5.5 30.0938C5.39583 29.4062 5.3125 28.7396 5.25 28.0938C5.1875 27.4271 5.14583 26.8125 5.125 26.25C5.125 25.6875 5.125 25.2292 5.125 24.875C5.125 24.25 5.15625 23.4688 5.21875 22.5312C5.30208 21.5729 5.42708 20.5729 5.59375 19.5312C5.76042 18.4896 5.97917 17.4479 6.25 16.4062C6.52083 15.3646 6.84375 14.4375 7.21875 13.625C7.61458 12.7917 8.0625 12.1146 8.5625 11.5938C9.08333 11.0729 9.67708 10.8125 10.3438 10.8125C10.6562 10.8125 10.9896 10.9896 11.3438 11.3438C11.6979 11.6979 12.0521 12.1667 12.4062 12.75C12.7604 13.3125 13.1042 13.9479 13.4375 14.6562C13.7708 15.3646 14.0833 16.0833 14.375 16.8125C14.6875 17.5208 14.9583 18.2083 15.1875 18.875C15.4167 19.5208 15.6042 20.0729 15.75 20.5312C15.9167 20.0312 16.125 19.4479 16.375 18.7812C16.625 18.1146 16.8958 17.4271 17.1875 16.7188C17.5 15.9896 17.8333 15.2812 18.1875 14.5938C18.5625 13.8854 18.9479 13.2604 19.3438 12.7188C19.7396 12.1562 20.1354 11.7083 20.5312 11.375C20.9479 11.0208 21.3646 10.8438 21.7812 10.8438C22.5104 10.8438 23.1354 11.1146 23.6562 11.6562C24.1771 12.1979 24.6146 12.9062 24.9688 13.7812C25.3229 14.6354 25.6042 15.6042 25.8125 16.6875C26.0208 17.75 26.1771 18.8125 26.2812 19.875C26.4062 20.9167 26.4792 21.8958 26.5 22.8125C26.5417 23.7292 26.5625 24.4688 26.5625 25.0312C26.5625 25.2604 26.5625 25.5729 26.5625 25.9688C26.5625 26.3646 26.5521 26.8125 26.5312 27.3125C26.5312 27.8125 26.5104 28.3438 26.4688 28.9062C26.4271 29.4688 26.375 30.0312 26.3125 30.5938ZM35.5625 43.0938C35.0625 43.0938 34.4896 43.0104 33.8438 42.8438C33.2188 42.6979 32.625 42.4792 32.0625 42.1875C31.5 41.8958 31.0208 41.5417 30.625 41.125C30.25 40.7083 30.0625 40.2292 30.0625 39.6875C30.0625 39.4792 30.1146 39.2708 30.2188 39.0625C30.3229 38.8542 30.4583 38.6667 30.625 38.5C30.8125 38.3542 31.0104 38.2292 31.2188 38.125C31.4271 38.0417 31.6458 38 31.875 38C32.125 38 32.3646 38.0312 32.5938 38.0938C32.8438 38.1771 33.0938 38.2708 33.3438 38.375C33.6146 38.4792 33.875 38.5729 34.125 38.6562C34.3958 38.7396 34.6771 38.7812 34.9688 38.7812C35.4896 38.7812 35.9375 38.6042 36.3125 38.25C36.7083 37.8958 37.0417 37.4271 37.3125 36.8438C37.5833 36.2812 37.8021 35.6458 37.9688 34.9375C38.1354 34.25 38.2604 33.5625 38.3438 32.875C38.4479 32.1875 38.5208 31.5417 38.5625 30.9375C38.6042 30.3333 38.6354 29.8438 38.6562 29.4688C37.9271 30.5729 37.1979 31.4271 36.4688 32.0312C35.7604 32.6146 34.8854 32.9062 33.8438 32.9062C33.0521 32.9062 32.3542 32.7396 31.75 32.4062C31.1667 32.0729 30.6667 31.6354 30.25 31.0938C29.8333 30.5521 29.4896 29.9375 29.2188 29.25C28.9479 28.5417 28.7396 27.8125 28.5938 27.0625C28.4688 26.3125 28.3854 25.5833 28.3438 24.875C28.3021 24.1458 28.3021 23.4792 28.3438 22.875C28.3646 22.4167 28.4167 21.8229 28.5 21.0938C28.6042 20.3438 28.7604 19.6146 28.9688 18.9062C29.1771 18.1979 29.4688 17.6042 29.8438 17.125C30.2188 16.625 30.7083 16.3958 31.3125 16.4375C31.7083 16.4583 32.0312 16.6354 32.2812 16.9688C32.5312 17.2812 32.7292 17.6771 32.875 18.1562C33.0417 18.6354 33.1562 19.1667 33.2188 19.75C33.3021 20.3125 33.3542 20.875 33.375 21.4375C33.3958 22 33.3958 22.5208 33.375 23C33.375 23.4583 33.375 23.8125 33.375 24.0625C33.375 24.4167 33.3854 24.7708 33.4062 25.125C33.4271 25.4792 33.5 25.8021 33.625 26.0938C33.75 26.3646 33.9375 26.5833 34.1875 26.75C34.4583 26.9167 34.8333 27 35.3125 27C35.8542 27 36.2812 26.8646 36.5938 26.5938C36.9271 26.3229 37.1667 25.9896 37.3125 25.5938C37.4792 25.1771 37.5833 24.7396 37.625 24.2812C37.6667 23.8021 37.6875 23.3542 37.6875 22.9375C37.6875 22.6458 37.6875 22.2917 37.6875 21.875C37.6875 21.4583 37.6875 21.0208 37.6875 20.5625C37.7083 20.1042 37.75 19.6562 37.8125 19.2188C37.8958 18.7604 38.0104 18.3542 38.1562 18C38.3229 17.625 38.5312 17.3229 38.7812 17.0938C39.0521 16.8646 39.3958 16.75 39.8125 16.75C40.3333 16.75 40.7812 16.9583 41.1562 17.375C41.5312 17.7708 41.8438 18.3021 42.0938 18.9688C42.3646 19.6146 42.5729 20.3333 42.7188 21.125C42.8854 21.9167 43.0104 22.7083 43.0938 23.5C43.1771 24.2708 43.2292 24.9896 43.25 25.6562C43.2917 26.3021 43.3125 26.8125 43.3125 27.1875C43.3125 28.0625 43.2812 29.0625 43.2188 30.1875C43.1562 31.2917 43.0312 32.4375 42.8438 33.625C42.6771 34.7917 42.4167 35.9375 42.0625 37.0625C41.7083 38.2083 41.2396 39.2292 40.6562 40.125C40.0938 41.0208 39.3958 41.7396 38.5625 42.2812C37.7292 42.8229 36.7292 43.0938 35.5625 43.0938ZM197.375 15.5312C197.375 16.9688 197.021 18.2812 196.312 19.4688C195.604 20.6354 194.656 21.6146 193.469 22.4062C194.094 22.5312 194.635 22.75 195.094 23.0625C195.552 23.3542 195.927 23.7188 196.219 24.1562C196.531 24.5938 196.76 25.0938 196.906 25.6562C197.073 26.1979 197.156 26.7708 197.156 27.375C197.156 28.5625 196.875 29.6042 196.312 30.5C195.771 31.375 195.062 32.1042 194.188 32.6875C193.312 33.25 192.333 33.6771 191.25 33.9688C190.188 34.2396 189.125 34.375 188.062 34.375C187.479 34.375 186.896 34.3333 186.312 34.25C185.729 34.1667 185.177 34.0208 184.656 33.8125C184.469 33.75 184.312 33.5 184.188 33.0625C184.062 32.6042 183.958 32.0521 183.875 31.4062C183.812 30.7604 183.76 30.0625 183.719 29.3125C183.677 28.5625 183.646 27.8438 183.625 27.1562C183.604 26.4688 183.594 25.8646 183.594 25.3438C183.594 24.8229 183.594 24.4583 183.594 24.25C183.594 23.5208 183.594 22.7917 183.594 22.0625C183.594 21.3125 183.615 20.5729 183.656 19.8438C183.656 19.6562 183.656 19.3646 183.656 18.9688C183.677 18.5729 183.688 18.1354 183.688 17.6562C183.708 17.1562 183.729 16.6354 183.75 16.0938C183.792 15.5521 183.833 15.0521 183.875 14.5938C183.938 14.1146 184.01 13.7083 184.094 13.375C184.198 13.0417 184.312 12.8333 184.438 12.75C184.917 12.4375 185.448 12.1458 186.031 11.875C186.615 11.5833 187.219 11.3333 187.844 11.125C188.469 10.9167 189.094 10.75 189.719 10.625C190.344 10.5 190.938 10.4375 191.5 10.4375C192.271 10.4375 193.01 10.5521 193.719 10.7812C194.448 10.9896 195.073 11.3125 195.594 11.75C196.135 12.1875 196.562 12.7292 196.875 13.375C197.208 14 197.375 14.7188 197.375 15.5312ZM192.188 17.1875C192.188 16.8333 192.073 16.5729 191.844 16.4062C191.635 16.2396 191.354 16.1562 191 16.1562C190.708 16.1562 190.396 16.2188 190.062 16.3438C189.75 16.4688 189.479 16.6354 189.25 16.8438C189.188 16.9062 189.125 17.0833 189.062 17.375C189.021 17.6667 188.979 18 188.938 18.375C188.917 18.7292 188.896 19.0729 188.875 19.4062C188.875 19.7188 188.875 19.9271 188.875 20.0312C188.875 20.0729 188.875 20.1458 188.875 20.25C188.875 20.3333 188.875 20.4271 188.875 20.5312C188.896 20.6354 188.917 20.7292 188.938 20.8125C188.958 20.8958 188.99 20.9375 189.031 20.9375C189.385 20.9375 189.75 20.8125 190.125 20.5625C190.5 20.2917 190.833 19.9688 191.125 19.5938C191.438 19.1979 191.688 18.7812 191.875 18.3438C192.083 17.9062 192.188 17.5208 192.188 17.1875ZM192.062 26.2188C192.062 25.8646 191.938 25.6146 191.688 25.4688C191.438 25.3229 191.156 25.25 190.844 25.25C190.552 25.25 190.24 25.3229 189.906 25.4688C189.594 25.5938 189.333 25.75 189.125 25.9375C189.062 25.9792 189.01 26.0833 188.969 26.25C188.948 26.4167 188.927 26.6042 188.906 26.8125C188.906 27 188.896 27.1875 188.875 27.375C188.875 27.5417 188.875 27.6562 188.875 27.7188C188.875 27.7604 188.875 27.8438 188.875 27.9688C188.875 28.0938 188.875 28.2292 188.875 28.375C188.896 28.5 188.917 28.625 188.938 28.75C188.979 28.8542 189.021 28.9062 189.062 28.9062C189.354 28.9062 189.677 28.8229 190.031 28.6562C190.385 28.4896 190.708 28.2812 191 28.0312C191.312 27.7812 191.562 27.5 191.75 27.1875C191.958 26.8542 192.062 26.5312 192.062 26.2188ZM212.062 29.5938C212.062 29.9688 212.042 30.4583 212 31.0625C211.979 31.6667 211.896 32.2604 211.75 32.8438C211.604 33.4062 211.375 33.8958 211.062 34.3125C210.75 34.7292 210.312 34.9375 209.75 34.9375C208.979 34.9375 208.385 34.6875 207.969 34.1875C207.552 33.6875 207.354 33.0625 207.375 32.3125C206.708 32.8958 205.948 33.3542 205.094 33.6875C204.26 34.0208 203.406 34.1875 202.531 34.1875C201.927 34.1875 201.354 34.0417 200.812 33.75C200.271 33.4583 199.792 33.0833 199.375 32.625C198.958 32.1667 198.625 31.6562 198.375 31.0938C198.125 30.5104 198 29.9375 198 29.375C198 28.375 198.302 27.5 198.906 26.75C199.531 26 200.292 25.3646 201.188 24.8438C202.083 24.3021 203.031 23.875 204.031 23.5625C205.052 23.25 205.958 23.0417 206.75 22.9375C206.75 22.8333 206.75 22.7396 206.75 22.6562C206.771 22.5729 206.781 22.4792 206.781 22.375C206.781 21.7292 206.604 21.2083 206.25 20.8125C205.896 20.4167 205.396 20.2188 204.75 20.2188C204.229 20.2188 203.781 20.3125 203.406 20.5C203.031 20.6667 202.677 20.8646 202.344 21.0938C202.01 21.3021 201.677 21.5 201.344 21.6875C201.01 21.8542 200.635 21.9375 200.219 21.9375C199.76 21.9375 199.365 21.7917 199.031 21.5C198.719 21.2083 198.562 20.8333 198.562 20.375C198.562 19.6875 198.76 19.0625 199.156 18.5C199.573 17.9375 200.083 17.4688 200.688 17.0938C201.312 16.6979 201.979 16.3958 202.688 16.1875C203.417 15.9583 204.083 15.8438 204.688 15.8438C205.25 15.8438 205.812 15.9167 206.375 16.0625C206.938 16.1875 207.469 16.3958 207.969 16.6875C208.469 16.9583 208.917 17.3021 209.312 17.7188C209.729 18.1146 210.062 18.5833 210.312 19.125C210.688 19.8958 210.99 20.7188 211.219 21.5938C211.448 22.4479 211.625 23.3333 211.75 24.25C211.875 25.1458 211.958 26.0521 212 26.9688C212.042 27.8646 212.062 28.7396 212.062 29.5938ZM207.062 28.5938L206.969 26.4688C206.927 26.4688 206.885 26.4688 206.844 26.4688C206.802 26.4479 206.76 26.4375 206.719 26.4375C206.448 26.4375 206.104 26.5104 205.688 26.6562C205.292 26.7812 204.906 26.9688 204.531 27.2188C204.156 27.4479 203.833 27.7083 203.562 28C203.312 28.2917 203.188 28.5938 203.188 28.9062C203.188 29.1979 203.292 29.3958 203.5 29.5C203.708 29.6042 203.948 29.6562 204.219 29.6562C204.677 29.6562 205.167 29.5417 205.688 29.3125C206.208 29.0625 206.667 28.8229 207.062 28.5938ZM224.781 22.3125C224.49 22.3333 224.24 22.3125 224.031 22.25C223.823 22.1667 223.615 22.0833 223.406 22C223.219 21.9167 223.031 21.8438 222.844 21.7812C222.656 21.6979 222.448 21.6667 222.219 21.6875C221.802 21.7083 221.427 21.8229 221.094 22.0312C220.781 22.2396 220.49 22.5 220.219 22.8125C219.969 23.125 219.75 23.4792 219.562 23.875C219.375 24.25 219.229 24.625 219.125 25C219.062 25.25 219.01 25.6354 218.969 26.1562C218.948 26.6562 218.938 27.1979 218.938 27.7812C218.917 28.3854 218.906 28.9583 218.906 29.5C218.906 30.0417 218.885 30.4688 218.844 30.7812C218.823 31.1146 218.771 31.5104 218.688 31.9688C218.604 32.4062 218.469 32.8229 218.281 33.2188C218.115 33.6146 217.885 33.9479 217.594 34.2188C217.302 34.4896 216.927 34.625 216.469 34.625C216.115 34.625 215.802 34.5208 215.531 34.3125C215.281 34.1042 215.062 33.8333 214.875 33.5C214.708 33.1458 214.562 32.7396 214.438 32.2812C214.333 31.8229 214.25 31.3542 214.188 30.875C214.125 30.375 214.073 29.875 214.031 29.375C214.01 28.875 213.99 28.4062 213.969 27.9688C213.969 27.5104 213.969 27.0938 213.969 26.7188C213.99 26.3438 214 26.0417 214 25.8125C213.979 25.0833 213.938 24.3542 213.875 23.625C213.833 22.875 213.812 22.1354 213.812 21.4062C213.812 20.9479 213.833 20.4375 213.875 19.875C213.917 19.3125 214.031 18.7917 214.219 18.3125C214.406 17.8125 214.677 17.3958 215.031 17.0625C215.406 16.7292 215.917 16.5625 216.562 16.5625C216.917 16.5625 217.219 16.6771 217.469 16.9062C217.719 17.1354 217.917 17.4167 218.062 17.75C218.229 18.0833 218.354 18.4375 218.438 18.8125C218.521 19.1875 218.573 19.5312 218.594 19.8438C219.094 19.0312 219.656 18.375 220.281 17.875C220.906 17.3542 221.719 17.0729 222.719 17.0312C223.219 17.0104 223.708 17.0625 224.188 17.1875C224.688 17.2917 225.135 17.4792 225.531 17.75C225.948 18 226.281 18.3333 226.531 18.75C226.802 19.1667 226.948 19.6562 226.969 20.2188C227.01 20.8854 226.812 21.3958 226.375 21.75C225.938 22.1042 225.406 22.2917 224.781 22.3125Z" fill="#0F172A"/>
<path d="M66.6875 18.0938C66.6875 18.4896 66.6354 18.9062 66.5312 19.3438C66.4479 19.7812 66.3021 20.1875 66.0938 20.5625C65.8854 20.9375 65.6146 21.25 65.2812 21.5C64.9479 21.75 64.5417 21.875 64.0625 21.875C63.3333 21.875 62.7917 21.75 62.4375 21.5C62.0833 21.2292 61.8333 20.8958 61.6875 20.5C61.5417 20.1042 61.4583 19.6875 61.4375 19.25C61.4375 18.7917 61.4271 18.3646 61.4062 17.9688C61.3854 17.5729 61.3125 17.25 61.1875 17C61.0833 16.7292 60.8438 16.5938 60.4688 16.5938C60.0521 16.5938 59.6875 16.75 59.375 17.0625C59.0625 17.3542 58.7917 17.7396 58.5625 18.2188C58.3333 18.6979 58.1354 19.2396 57.9688 19.8438C57.8229 20.4479 57.6979 21.0521 57.5938 21.6562C57.5104 22.2396 57.4479 22.8021 57.4062 23.3438C57.3646 23.8646 57.3438 24.2917 57.3438 24.625C57.3438 25.0625 57.3542 25.5833 57.375 26.1875C57.4167 26.7917 57.5208 27.375 57.6875 27.9375C57.8542 28.4792 58.1042 28.9479 58.4375 29.3438C58.7708 29.7188 59.25 29.9062 59.875 29.9062C60.2917 29.9062 60.6979 29.8542 61.0938 29.75C61.4896 29.6458 61.8854 29.5312 62.2812 29.4062C62.6771 29.2604 63.0729 29.1354 63.4688 29.0312C63.8854 28.9271 64.3021 28.875 64.7188 28.875C65.1979 28.875 65.5938 29.0729 65.9062 29.4688C66.2188 29.8438 66.375 30.2708 66.375 30.75C66.375 31.4167 66.1667 32.0417 65.75 32.625C65.3333 33.1875 64.8125 33.6875 64.1875 34.125C63.5833 34.5625 62.9167 34.9062 62.1875 35.1562C61.4792 35.4062 60.8333 35.5312 60.25 35.5312C58.75 35.5312 57.4792 35.1875 56.4375 34.5C55.3958 33.8333 54.5521 32.9688 53.9062 31.9062C53.2604 30.8229 52.7917 29.625 52.5 28.3125C52.2292 26.9792 52.0938 25.6562 52.0938 24.3438C52.0938 23.4688 52.1771 22.5104 52.3438 21.4688C52.5104 20.4271 52.7604 19.3854 53.0938 18.3438C53.4271 17.2812 53.8438 16.2604 54.3438 15.2812C54.8646 14.3021 55.4688 13.4375 56.1562 12.6875C56.8438 11.9375 57.6146 11.3333 58.4688 10.875C59.3438 10.4167 60.3021 10.1875 61.3438 10.1875C62.3646 10.1875 63.2188 10.4479 63.9062 10.9688C64.5938 11.4688 65.1458 12.1146 65.5625 12.9062C65.9792 13.6771 66.2708 14.5312 66.4375 15.4688C66.6042 16.3854 66.6875 17.2604 66.6875 18.0938ZM82.125 25.9062C82.125 26.2604 82.1146 26.7917 82.0938 27.5C82.0938 28.1875 82.0625 28.9167 82 29.6875C81.9583 30.4375 81.8958 31.1562 81.8125 31.8438C81.7292 32.5104 81.625 33 81.5 33.3125C81.3333 33.7083 81.1146 34.0521 80.8438 34.3438C80.5729 34.6354 80.2083 34.7812 79.75 34.7812C79.0417 34.7812 78.5312 34.5 78.2188 33.9375C77.9062 33.375 77.6979 32.6771 77.5938 31.8438C77.4896 31.0104 77.4479 30.1042 77.4688 29.125C77.4896 28.1458 77.4792 27.2396 77.4375 26.4062C77.3958 25.5729 77.2812 24.875 77.0938 24.3125C76.9062 23.75 76.5625 23.4688 76.0625 23.4688C75.375 23.4688 74.8438 23.5833 74.4688 23.8125C74.1146 24.0208 73.8542 24.3021 73.6875 24.6562C73.5417 25.0104 73.4479 25.4167 73.4062 25.875C73.3854 26.3333 73.3542 26.8125 73.3125 27.3125C73.2708 27.7917 73.2396 28.4375 73.2188 29.25C73.1979 30.0625 73.1042 30.8646 72.9375 31.6562C72.7708 32.4479 72.4896 33.1354 72.0938 33.7188C71.7188 34.2812 71.1562 34.5625 70.4062 34.5625C69.9479 34.5625 69.5729 34.3854 69.2812 34.0312C69.0104 33.6771 68.7917 33.2188 68.625 32.6562C68.4583 32.0938 68.3333 31.4688 68.25 30.7812C68.1875 30.0938 68.1458 29.4271 68.125 28.7812C68.125 28.1146 68.125 27.5104 68.125 26.9688C68.1458 26.4271 68.1562 26.0208 68.1562 25.75C68.1562 25.3333 68.1667 24.6458 68.1875 23.6875C68.2292 22.7292 68.3021 21.6667 68.4062 20.5C68.5104 19.3125 68.6458 18.0938 68.8125 16.8438C68.9792 15.5938 69.1979 14.4583 69.4688 13.4375C69.7396 12.3958 70.0625 11.5521 70.4375 10.9062C70.8333 10.2604 71.2917 9.94792 71.8125 9.96875C72.1458 9.98958 72.4271 10.1354 72.6562 10.4062C72.9062 10.6771 73.1042 11.0312 73.25 11.4688C73.4167 11.8854 73.5521 12.3438 73.6562 12.8438C73.7604 13.3438 73.8333 13.8438 73.875 14.3438C73.9375 14.8229 73.9688 15.2708 73.9688 15.6875C73.9896 16.1042 74 16.4271 74 16.6562C74 17.1979 73.9896 17.7396 73.9688 18.2812C73.9479 18.8229 73.9167 19.3646 73.875 19.9062C74.3542 19.2604 74.9896 18.7292 75.7812 18.3125C76.5938 17.8958 77.4062 17.6875 78.2188 17.6875C79.2604 17.6875 80.0417 17.9792 80.5625 18.5625C81.1042 19.125 81.4896 19.8333 81.7188 20.6875C81.9479 21.5208 82.0729 22.4167 82.0938 23.375C82.1146 24.3125 82.125 25.1562 82.125 25.9062ZM90.2812 34.9062C89.2188 34.9062 88.2917 34.625 87.5 34.0625C86.7083 33.5 86.0417 32.7812 85.5 31.9062C84.9583 31.0312 84.5521 30.0625 84.2812 29C84.0104 27.9167 83.875 26.8542 83.875 25.8125C83.875 24.7083 84.0104 23.5729 84.2812 22.4062C84.5521 21.2188 84.9688 20.1458 85.5312 19.1875C86.0938 18.2083 86.8125 17.4167 87.6875 16.8125C88.5625 16.1875 89.6042 15.875 90.8125 15.875C91.9792 15.875 92.9688 16.1979 93.7812 16.8438C94.6146 17.4688 95.2812 18.2604 95.7812 19.2188C96.2812 20.1562 96.6354 21.1875 96.8438 22.3125C97.0521 23.4375 97.125 24.5 97.0625 25.5C97 26.6042 96.8229 27.7188 96.5312 28.8438C96.2604 29.9688 95.8542 30.9792 95.3125 31.875C94.7708 32.7708 94.0833 33.5 93.25 34.0625C92.4167 34.625 91.4271 34.9062 90.2812 34.9062ZM90.5938 20.7812C90.2812 20.7812 90 20.9479 89.75 21.2812C89.5208 21.6146 89.3229 22.0208 89.1562 22.5C89.0104 22.9792 88.8958 23.4896 88.8125 24.0312C88.7292 24.5521 88.6875 25.0104 88.6875 25.4062C88.6875 25.9062 88.7292 26.4479 88.8125 27.0312C88.9167 27.6146 89.0521 28.1562 89.2188 28.6562C89.3854 29.1354 89.5833 29.5417 89.8125 29.875C90.0625 30.1875 90.3438 30.3438 90.6562 30.3438C90.9896 30.3438 91.2708 30.1875 91.5 29.875C91.75 29.5625 91.9479 29.1667 92.0938 28.6875C92.2396 28.2083 92.3438 27.6875 92.4062 27.125C92.4688 26.5417 92.5 26 92.5 25.5C92.5 25.0417 92.4583 24.5417 92.375 24C92.2917 23.4375 92.1667 22.9167 92 22.4375C91.8542 21.9583 91.6562 21.5625 91.4062 21.25C91.1771 20.9375 90.9062 20.7812 90.5938 20.7812ZM110.25 22C110.25 22.1042 110.24 22.2188 110.219 22.3438C110.198 22.4479 110.167 22.5521 110.125 22.6562C109.938 23.1354 109.646 23.5417 109.25 23.875C108.854 24.1875 108.385 24.3438 107.844 24.3438C107.031 24.3438 106.479 23.9375 106.188 23.125C106.146 23.0208 106.125 22.9062 106.125 22.7812C106.125 22.6354 106.115 22.4896 106.094 22.3438V21.4375C106.052 21.1458 105.979 20.9167 105.875 20.75C105.771 20.5833 105.594 20.5 105.344 20.5C104.99 20.5 104.646 20.7292 104.312 21.1875C104 21.625 103.719 22.1562 103.469 22.7812C103.24 23.3854 103.052 24.0104 102.906 24.6562C102.76 25.3021 102.688 25.8229 102.688 26.2188C102.688 26.5312 102.708 26.9167 102.75 27.375C102.792 27.8125 102.875 28.2396 103 28.6562C103.125 29.0729 103.292 29.4375 103.5 29.75C103.729 30.0417 104.021 30.1875 104.375 30.1875C104.729 30.1875 105.052 30.0833 105.344 29.875C105.656 29.6458 105.958 29.3854 106.25 29.0938C106.521 28.8438 106.812 28.5833 107.125 28.3125C107.458 28.0417 107.833 27.9062 108.25 27.9062C108.771 27.9062 109.177 28.0938 109.469 28.4688C109.781 28.8438 109.938 29.2708 109.938 29.75C109.938 30.4583 109.75 31.125 109.375 31.75C109 32.3542 108.531 32.8854 107.969 33.3438C107.406 33.7812 106.781 34.125 106.094 34.375C105.406 34.6458 104.75 34.7812 104.125 34.7812C103 34.7812 102.042 34.5 101.25 33.9375C100.479 33.375 99.8542 32.6667 99.375 31.8125C98.8958 30.9375 98.5521 29.9896 98.3438 28.9688C98.1354 27.9479 98.0312 26.9792 98.0312 26.0625C98.0312 25 98.1771 23.8542 98.4688 22.625C98.7604 21.375 99.2083 20.2188 99.8125 19.1562C100.417 18.0938 101.188 17.2083 102.125 16.5C103.083 15.7917 104.219 15.4375 105.531 15.4375C106.344 15.4375 107.042 15.6146 107.625 15.9688C108.229 16.3229 108.719 16.7917 109.094 17.375C109.49 17.9375 109.781 18.5729 109.969 19.2812C110.177 19.9896 110.281 20.6875 110.281 21.375C110.281 21.4792 110.281 21.5833 110.281 21.6875C110.281 21.7917 110.271 21.8958 110.25 22ZM117.938 34.9062C116.875 34.9062 115.948 34.625 115.156 34.0625C114.365 33.5 113.698 32.7812 113.156 31.9062C112.615 31.0312 112.208 30.0625 111.938 29C111.667 27.9167 111.531 26.8542 111.531 25.8125C111.531 24.7083 111.667 23.5729 111.938 22.4062C112.208 21.2188 112.625 20.1458 113.188 19.1875C113.75 18.2083 114.469 17.4167 115.344 16.8125C116.219 16.1875 117.26 15.875 118.469 15.875C119.635 15.875 120.625 16.1979 121.438 16.8438C122.271 17.4688 122.938 18.2604 123.438 19.2188C123.938 20.1562 124.292 21.1875 124.5 22.3125C124.708 23.4375 124.781 24.5 124.719 25.5C124.656 26.6042 124.479 27.7188 124.188 28.8438C123.917 29.9688 123.51 30.9792 122.969 31.875C122.427 32.7708 121.74 33.5 120.906 34.0625C120.073 34.625 119.083 34.9062 117.938 34.9062ZM118.25 20.7812C117.938 20.7812 117.656 20.9479 117.406 21.2812C117.177 21.6146 116.979 22.0208 116.812 22.5C116.667 22.9792 116.552 23.4896 116.469 24.0312C116.385 24.5521 116.344 25.0104 116.344 25.4062C116.344 25.9062 116.385 26.4479 116.469 27.0312C116.573 27.6146 116.708 28.1562 116.875 28.6562C117.042 29.1354 117.24 29.5417 117.469 29.875C117.719 30.1875 118 30.3438 118.312 30.3438C118.646 30.3438 118.927 30.1875 119.156 29.875C119.406 29.5625 119.604 29.1667 119.75 28.6875C119.896 28.2083 120 27.6875 120.062 27.125C120.125 26.5417 120.156 26 120.156 25.5C120.156 25.0417 120.115 24.5417 120.031 24C119.948 23.4375 119.823 22.9167 119.656 22.4375C119.51 21.9583 119.312 21.5625 119.062 21.25C118.833 20.9375 118.562 20.7812 118.25 20.7812ZM132.156 15.0625C132.156 16.1875 132.104 17.3229 132 18.4688C131.917 19.5938 131.875 20.7292 131.875 21.875C131.875 23.3542 131.917 24.8333 132 26.3125C132.104 27.7917 132.156 29.2812 132.156 30.7812C132.156 31.1562 132.135 31.5833 132.094 32.0625C132.052 32.5208 131.948 32.9479 131.781 33.3438C131.635 33.7396 131.406 34.0729 131.094 34.3438C130.781 34.6146 130.365 34.75 129.844 34.75C129.344 34.75 128.906 34.5 128.531 34C128.177 33.5208 127.875 32.9062 127.625 32.1562C127.396 31.3854 127.198 30.5312 127.031 29.5938C126.885 28.6562 126.771 27.75 126.688 26.875C126.625 25.9792 126.573 25.1667 126.531 24.4375C126.51 23.6875 126.5 23.1354 126.5 22.7812C126.5 22.3854 126.51 21.8125 126.531 21.0625C126.573 20.3125 126.646 19.5 126.75 18.625C126.854 17.75 126.99 16.8646 127.156 15.9688C127.344 15.0521 127.583 14.2292 127.875 13.5C128.167 12.75 128.51 12.1458 128.906 11.6875C129.323 11.2083 129.812 10.9688 130.375 10.9688C130.833 10.9688 131.177 11.125 131.406 11.4375C131.656 11.7292 131.833 12.0938 131.938 12.5312C132.042 12.9479 132.104 13.3958 132.125 13.875C132.146 14.3333 132.156 14.7292 132.156 15.0625ZM147.812 29.5938C147.812 29.9688 147.792 30.4583 147.75 31.0625C147.729 31.6667 147.646 32.2604 147.5 32.8438C147.354 33.4062 147.125 33.8958 146.812 34.3125C146.5 34.7292 146.062 34.9375 145.5 34.9375C144.729 34.9375 144.135 34.6875 143.719 34.1875C143.302 33.6875 143.104 33.0625 143.125 32.3125C142.458 32.8958 141.698 33.3542 140.844 33.6875C140.01 34.0208 139.156 34.1875 138.281 34.1875C137.677 34.1875 137.104 34.0417 136.562 33.75C136.021 33.4583 135.542 33.0833 135.125 32.625C134.708 32.1667 134.375 31.6562 134.125 31.0938C133.875 30.5104 133.75 29.9375 133.75 29.375C133.75 28.375 134.052 27.5 134.656 26.75C135.281 26 136.042 25.3646 136.938 24.8438C137.833 24.3021 138.781 23.875 139.781 23.5625C140.802 23.25 141.708 23.0417 142.5 22.9375C142.5 22.8333 142.5 22.7396 142.5 22.6562C142.521 22.5729 142.531 22.4792 142.531 22.375C142.531 21.7292 142.354 21.2083 142 20.8125C141.646 20.4167 141.146 20.2188 140.5 20.2188C139.979 20.2188 139.531 20.3125 139.156 20.5C138.781 20.6667 138.427 20.8646 138.094 21.0938C137.76 21.3021 137.427 21.5 137.094 21.6875C136.76 21.8542 136.385 21.9375 135.969 21.9375C135.51 21.9375 135.115 21.7917 134.781 21.5C134.469 21.2083 134.312 20.8333 134.312 20.375C134.312 19.6875 134.51 19.0625 134.906 18.5C135.323 17.9375 135.833 17.4688 136.438 17.0938C137.062 16.6979 137.729 16.3958 138.438 16.1875C139.167 15.9583 139.833 15.8438 140.438 15.8438C141 15.8438 141.562 15.9167 142.125 16.0625C142.688 16.1875 143.219 16.3958 143.719 16.6875C144.219 16.9583 144.667 17.3021 145.062 17.7188C145.479 18.1146 145.812 18.5833 146.062 19.125C146.438 19.8958 146.74 20.7188 146.969 21.5938C147.198 22.4479 147.375 23.3333 147.5 24.25C147.625 25.1458 147.708 26.0521 147.75 26.9688C147.792 27.8646 147.812 28.7396 147.812 29.5938ZM142.812 28.5938L142.719 26.4688C142.677 26.4688 142.635 26.4688 142.594 26.4688C142.552 26.4479 142.51 26.4375 142.469 26.4375C142.198 26.4375 141.854 26.5104 141.438 26.6562C141.042 26.7812 140.656 26.9688 140.281 27.2188C139.906 27.4479 139.583 27.7083 139.312 28C139.062 28.2917 138.938 28.5938 138.938 28.9062C138.938 29.1979 139.042 29.3958 139.25 29.5C139.458 29.6042 139.698 29.6562 139.969 29.6562C140.427 29.6562 140.917 29.5417 141.438 29.3125C141.958 29.0625 142.417 28.8229 142.812 28.5938ZM156.969 35.125C155.49 35.125 154.333 34.9271 153.5 34.5312C152.688 34.1562 152.073 33.6146 151.656 32.9062C151.26 32.1979 151.021 31.3438 150.938 30.3438C150.854 29.3438 150.812 28.2292 150.812 27C150.812 26.0208 150.844 25.0417 150.906 24.0625C150.969 23.0625 151.062 22 151.188 20.875C150.896 20.875 150.667 20.8854 150.5 20.9062C150.333 20.9062 150.198 20.9062 150.094 20.9062C149.427 20.9062 148.854 20.7604 148.375 20.4688C147.875 20.1771 147.625 19.7292 147.625 19.125C147.625 18.75 147.771 18.4167 148.062 18.125C148.333 17.8333 148.688 17.5833 149.125 17.375C149.562 17.1667 150.031 17 150.531 16.875C151.052 16.75 151.542 16.6667 152 16.625C152 16.0417 152.042 15.3958 152.125 14.6875C152.208 13.9792 152.354 13.3229 152.562 12.7188C152.792 12.0938 153.094 11.5729 153.469 11.1562C153.844 10.7396 154.323 10.5312 154.906 10.5312C155.24 10.5312 155.531 10.6354 155.781 10.8438C156.052 11.0312 156.271 11.2812 156.438 11.5938C156.604 11.8854 156.729 12.2188 156.812 12.5938C156.896 12.9688 156.938 13.3333 156.938 13.6875C156.938 14.1042 156.906 14.5312 156.844 14.9688C156.781 15.4062 156.667 15.9479 156.5 16.5938C156.854 16.5521 157.094 16.5312 157.219 16.5312C157.344 16.5104 157.458 16.5 157.562 16.5C157.917 16.5 158.281 16.5312 158.656 16.5938C159.052 16.6562 159.406 16.7604 159.719 16.9062C160.052 17.0521 160.323 17.25 160.531 17.5C160.74 17.7292 160.844 18.0104 160.844 18.3438C160.844 18.7188 160.688 19.0521 160.375 19.3438C160.083 19.6354 159.708 19.8854 159.25 20.0938C158.792 20.3021 158.302 20.4688 157.781 20.5938C157.26 20.6979 156.771 20.7708 156.312 20.8125C156.188 21.6667 156.094 22.4583 156.031 23.1875C155.99 23.8958 155.938 24.6146 155.875 25.3438C155.833 25.6979 155.792 26.0625 155.75 26.4375C155.729 26.7917 155.719 27.1562 155.719 27.5312C155.719 27.8021 155.729 28.125 155.75 28.5C155.771 28.8542 155.844 29.1979 155.969 29.5312C156.094 29.8646 156.292 30.1562 156.562 30.4062C156.833 30.6354 157.208 30.75 157.688 30.75C157.979 30.75 158.281 30.7292 158.594 30.6875C158.906 30.625 159.219 30.5938 159.531 30.5938C160.073 30.5938 160.458 30.7812 160.688 31.1562C160.938 31.5312 161.062 32.0104 161.062 32.5938C161.062 33.0312 160.927 33.4167 160.656 33.75C160.406 34.0625 160.083 34.3125 159.688 34.5C159.292 34.7083 158.844 34.8646 158.344 34.9688C157.865 35.0729 157.406 35.125 156.969 35.125ZM174.781 28.4375C174.781 29.1458 174.552 29.8438 174.094 30.5312C173.656 31.1979 173.094 31.8021 172.406 32.3438C171.74 32.8646 171.021 33.2917 170.25 33.625C169.479 33.9375 168.771 34.0938 168.125 34.0938C167.021 34.0938 166.031 33.8229 165.156 33.2812C164.302 32.7188 163.583 32.0104 163 31.1562C162.417 30.3021 161.969 29.3646 161.656 28.3438C161.365 27.3021 161.219 26.2917 161.219 25.3125C161.219 24.2708 161.365 23.1562 161.656 21.9688C161.948 20.7812 162.385 19.6875 162.969 18.6875C163.573 17.6875 164.323 16.8542 165.219 16.1875C166.135 15.5208 167.219 15.1875 168.469 15.1875C169.177 15.1875 169.854 15.3125 170.5 15.5625C171.146 15.7917 171.708 16.125 172.188 16.5625C172.667 17 173.052 17.5208 173.344 18.125C173.635 18.7292 173.781 19.4062 173.781 20.1562C173.781 21.1354 173.573 22.0521 173.156 22.9062C172.74 23.7604 172.188 24.5 171.5 25.125C170.812 25.75 170.021 26.2604 169.125 26.6562C168.229 27.0312 167.312 27.2396 166.375 27.2812C166.458 27.8854 166.698 28.3229 167.094 28.5938C167.51 28.8646 168 29 168.562 29C168.979 29 169.385 28.8958 169.781 28.6875C170.177 28.4792 170.562 28.25 170.938 28C171.312 27.7292 171.677 27.4896 172.031 27.2812C172.406 27.0729 172.781 26.9688 173.156 26.9688C173.573 26.9688 173.948 27.1042 174.281 27.375C174.615 27.6458 174.781 28 174.781 28.4375ZM169.719 20.7812C169.719 20.5104 169.646 20.2292 169.5 19.9375C169.354 19.6458 169.125 19.5 168.812 19.5C168.354 19.5 167.969 19.625 167.656 19.875C167.344 20.1042 167.083 20.4062 166.875 20.7812C166.667 21.1354 166.5 21.5208 166.375 21.9375C166.271 22.3542 166.208 22.7396 166.188 23.0938C166.479 23.0312 166.823 22.9479 167.219 22.8438C167.635 22.7396 168.021 22.6042 168.375 22.4375C168.75 22.25 169.062 22.0208 169.312 21.75C169.583 21.4792 169.719 21.1562 169.719 20.7812Z" fill="#EA5A47"/>
</svg>
